<?xml version="1.0" encoding="utf-8"?>
<!-- Generator: Adobe Illustrator 22.0.1, SVG Export Plug-In . SVG Version: 6.00 Build 0)  -->
<svg version="1.1" id="Layer_1" xmlns="http://www.w3.org/2000/svg" xmlns:xlink="http://www.w3.org/1999/xlink" x="0px" y="0px"
	 viewBox="0 0 462.5 437.3" style="enable-background:new 0 0 462.5 437.3;" xml:space="preserve">
<style type="text/css">
	.st0{fill:#A58A65;}
</style>
<path class="st0" d="M258.8,10.6C251.2,3.8,241.5,0,231.3,0s-19.9,3.8-27.5,10.6L13.4,183.9c-8.2,7.4-13,17.9-13.3,28.9
	c-0.4,11,3.8,21.8,11.5,29.7c7.7,7.9,18.3,12.4,29.3,12.4h7.5c1.5,0,3,0.6,4.1,1.7c1.1,1.1,1.7,2.6,1.7,4.1v135.8
	c0,10.8,4.3,21.2,12,28.9s18,12,28.9,12h66.1c6.2,0,12.1-2.5,16.5-6.8s6.8-10.3,6.8-16.5v-75.6c-0.3-11.4,3.5-22.6,10.6-31.6
	c7.1-9,17.2-15.1,28.4-17.4c13.6-2.3,27.6,1.5,38.1,10.4c10.6,8.9,16.7,22,16.7,35.8v78.1v0c0,6.2,2.5,12.1,6.8,16.5
	s10.3,6.8,16.5,6.8h66.1h0c10.8,0,21.2-4.3,28.9-12s12-18,12-28.9V260.7c0-3.2,2.6-5.8,5.8-5.8h7.5c11,0,21.6-4.5,29.3-12.4
	c7.7-7.9,11.8-18.6,11.5-29.6c-0.3-11-5.1-21.4-13.2-28.9L258.8,10.6z"/>
</svg>
