<?xml version="1.0" encoding="utf-8"?>
<!-- Generator: Adobe Illustrator 22.0.1, SVG Export Plug-In . SVG Version: 6.00 Build 0)  -->
<svg version="1.1" id="Layer_1" xmlns="http://www.w3.org/2000/svg" xmlns:xlink="http://www.w3.org/1999/xlink" x="0px" y="0px"
	 viewBox="0 0 40 41" style="enable-background:new 0 0 40 41;" xml:space="preserve">
<style type="text/css">
	.st0{fill:#FFFFFF;}
</style>
<path class="st0" d="M20,37.5c-7.7,0-14-3.9-14-8.7c0-4.8,6.3-8.7,14-8.7c7.7,0,14,3.9,14,8.7C34,33.6,27.7,37.5,20,37.5z M20,18.8
	L20,18.8c-2,0-3.9-0.8-5.3-2.3c-1.4-1.4-2.2-3.4-2.2-5.4c0-2,0.8-4,2.2-5.4C16.1,4.3,18,3.5,20,3.5c2,0,3.9,0.8,5.4,2.3
	c1.4,1.4,2.2,3.4,2.2,5.4c0,2-0.8,4-2.2,5.4C23.9,18,22,18.9,20,18.8L20,18.8z"/>
</svg>
