<?xml version="1.0" encoding="utf-8"?>
<!-- Generator: Adobe Illustrator 22.0.1, SVG Export Plug-In . SVG Version: 6.00 Build 0)  -->
<svg version="1.1" id="Layer_1" xmlns="http://www.w3.org/2000/svg" xmlns:xlink="http://www.w3.org/1999/xlink" x="0px" y="0px"
	 viewBox="0 0 510.1 466.7" style="enable-background:new 0 0 510.1 466.7;" xml:space="preserve">
<style type="text/css">
	.st0{fill:#A58A65;}
</style>
<g>
	<path class="st0" d="M472,282.2c-10.1,0-19.7,4-26.8,11.1c-7.1,7.1-11.1,16.8-11.1,26.8v65.1v0c0,3-2.4,5.4-5.4,5.4h-86.8
		c-13.6,0-26.1,7.2-32.9,19c-6.8,11.8-6.8,26.2,0,38s19.3,19,32.9,19h86.8c21.7,0,42.5-8.7,57.8-24.1c3.3-3.3,6.3-6.9,8.9-10.8
		c9.6-13.6,14.8-29.9,14.8-46.5v-65.1c0-10.1-4-19.7-11.2-26.9C491.8,286.2,482.1,282.2,472,282.2L472,282.2z"/>
	<path class="st0" d="M486.4,24.1C471.2,8.7,450.4,0,428.7,0h-86.8c-13.6,0-26.1,7.2-32.9,19c-6.8,11.8-6.8,26.2,0,38
		c6.8,11.8,19.3,19,32.9,19h86.8c1.4,0,2.8,0.6,3.8,1.6c1,1,1.6,2.4,1.6,3.8v65.1c0,13.6,7.2,26.1,19,32.9c11.8,6.8,26.2,6.8,38,0
		s19-19.3,19-32.9V81.4c0-16.6-5.2-32.8-14.7-46.4C492.8,31.1,489.8,27.4,486.4,24.1L486.4,24.1z"/>
	<path class="st0" d="M38,184.5c10.1,0,19.7-4,26.8-11.2C72,166.2,76,156.6,76,146.5V81.4c0-3,2.4-5.4,5.4-5.4h86.8
		c13.6,0,26.1-7.2,32.9-19c6.8-11.8,6.8-26.2,0-38S181.8,0,168.2,0H81.4C59.7,0,38.9,8.7,23.7,24.1c-3.4,3.3-6.4,6.9-9,10.9
		C5.2,48.6,0,64.8,0,81.4v65.1c0,10.1,4,19.7,11.2,26.9C18.3,180.5,28,184.5,38,184.5L38,184.5z"/>
	<path class="st0" d="M23.7,442.5c15.2,15.4,36,24.1,57.7,24.1h86.8c13.6,0,26.1-7.2,32.9-19c6.8-11.8,6.8-26.2,0-38
		c-6.8-11.8-19.3-19-32.9-19H81.4c-3,0-5.4-2.4-5.4-5.4v-65.1c0-13.6-7.2-26.1-19-32.9c-11.8-6.8-26.2-6.8-38,0S0,306.6,0,320.2
		v65.1v0c0,16.6,5.1,32.9,14.7,46.5C17.3,435.7,20.3,439.3,23.7,442.5L23.7,442.5z"/>
</g>
</svg>
